<svg width="256" height="256" viewBox="0 0 256 256" fill="none" xmlns="http://www.w3.org/2000/svg">
<g clip-path="url(#clip0_46_13)">
<rect width="256" height="256" fill="#EE1C25"/>
<path d="M33.3685 4.52747L45.1474 40.7792H83.2647L52.4272 63.184L64.2061 99.4357L33.3685 77.0309L2.53095 99.4357L14.3098 63.184L-16.5277 40.7792H21.5896L33.3685 4.52747Z" fill="#D9D9D9" fill-opacity="0.1"/>
<path d="M103.369 104.527L115.147 140.779H153.265L122.427 163.184L134.206 199.436L103.369 177.031L72.5309 199.436L84.3098 163.184L53.4723 140.779H91.5896L103.369 104.527Z" fill="#D9D9D9" fill-opacity="0.1"/>
<path d="M103.369 234.527L115.147 270.779H153.265L122.427 293.184L134.206 329.436L103.369 307.031L72.5309 329.436L84.3098 293.184L53.4723 270.779H91.5896L103.369 234.527Z" fill="#D9D9D9" fill-opacity="0.1"/>
<path d="M87.4778 42.0985H80.4785C80.3507 41.193 80.0897 40.3887 79.6955 39.6855C79.3013 38.9718 78.7953 38.3645 78.1774 37.8638C77.5595 37.3631 76.8457 36.9796 76.036 36.7132C75.237 36.4469 74.3688 36.3137 73.4313 36.3137C71.7374 36.3137 70.2619 36.7345 69.0048 37.5762C67.7477 38.4071 66.7729 39.6216 66.0804 41.2196C65.3879 42.807 65.0417 44.7353 65.0417 47.0044C65.0417 49.3375 65.3879 51.2978 66.0804 52.8851C66.7835 54.4725 67.7637 55.671 69.0208 56.4806C70.2779 57.2903 71.7321 57.6951 73.3833 57.6951C74.3102 57.6951 75.1678 57.5726 75.9561 57.3276C76.7551 57.0826 77.4636 56.7257 78.0815 56.2569C78.6994 55.7775 79.2107 55.1969 79.6156 54.5151C80.0311 53.8333 80.3187 53.0556 80.4785 52.182L87.4778 52.214C87.2967 53.7161 86.8439 55.1649 86.1195 56.5605C85.4057 57.9455 84.4416 59.1866 83.2271 60.2839C82.0232 61.3706 80.585 62.2335 78.9124 62.8727C77.2505 63.5012 75.3702 63.8155 73.2715 63.8155C70.3524 63.8155 67.7423 63.155 65.4412 61.834C63.1507 60.513 61.3396 58.6007 60.008 56.0971C58.687 53.5936 58.0264 50.5627 58.0264 47.0044C58.0264 43.4355 58.6976 40.3993 60.0399 37.8958C61.3823 35.3922 63.204 33.4853 65.5051 32.1749C67.8063 30.8539 70.395 30.1934 73.2715 30.1934C75.1678 30.1934 76.9256 30.4597 78.5449 30.9924C80.1749 31.525 81.6184 32.3027 82.8755 33.3255C84.1326 34.3375 85.1553 35.5787 85.9437 37.0488C86.7427 38.519 87.2541 40.2022 87.4778 42.0985ZM90.1896 63.3681V30.6408H97.109V44.144H111.156V30.6408H118.059V63.3681H111.156V49.8489H97.109V63.3681H90.1896ZM128.433 30.6408V63.3681H121.514V30.6408H128.433ZM159.25 30.6408V63.3681H153.274L139.035 42.7697H138.796V63.3681H131.876V30.6408H137.949L152.075 51.2232H152.363V30.6408H159.25ZM168.358 63.3681H160.943L172.241 30.6408H181.158L192.44 63.3681H185.025L176.827 38.1195H176.572L168.358 63.3681ZM167.895 50.5041H185.409V55.9054H167.895V50.5041ZM67.0192 84.6408L74.9294 109.506H75.233L83.1592 84.6408H90.8296L79.5477 117.368H70.6308L59.3328 84.6408H67.0192ZM99.4381 84.6408V117.368H92.5187V84.6408H99.4381ZM114.483 117.368H102.881V84.6408H114.578C117.87 84.6408 120.704 85.296 123.08 86.6064C125.456 87.9061 127.283 89.7757 128.561 92.2154C129.85 94.655 130.495 97.574 130.495 100.972C130.495 104.382 129.85 107.311 128.561 109.762C127.283 112.212 125.445 114.092 123.048 115.403C120.662 116.713 117.806 117.368 114.483 117.368ZM109.8 111.439H114.195C116.24 111.439 117.961 111.077 119.357 110.353C120.763 109.618 121.817 108.483 122.521 106.949C123.234 105.404 123.591 103.412 123.591 100.972C123.591 98.5542 123.234 96.5779 122.521 95.0439C121.817 93.5098 120.768 92.3805 119.372 91.6561C117.977 90.9316 116.256 90.5694 114.211 90.5694H109.8V111.439ZM133.37 117.368V84.6408H155.423V90.3457H140.29V98.144H154.288V103.849H140.29V111.663H155.487V117.368H133.37ZM188.749 101.004C188.749 104.573 188.072 107.61 186.719 110.113C185.377 112.617 183.544 114.529 181.222 115.85C178.91 117.16 176.311 117.816 173.424 117.816C170.515 117.816 167.905 117.155 165.593 115.834C163.282 114.513 161.455 112.601 160.112 110.097C158.77 107.594 158.099 104.563 158.099 101.004C158.099 97.4355 158.77 94.3993 160.112 91.8958C161.455 89.3922 163.282 87.4853 165.593 86.1749C167.905 84.8539 170.515 84.1934 173.424 84.1934C176.311 84.1934 178.91 84.8539 181.222 86.1749C183.544 87.4853 185.377 89.3922 186.719 91.8958C188.072 94.3993 188.749 97.4355 188.749 101.004ZM181.733 101.004C181.733 98.6926 181.387 96.7431 180.695 95.1557C180.013 93.5684 179.049 92.3645 177.802 91.5442C176.556 90.7239 175.096 90.3137 173.424 90.3137C171.751 90.3137 170.292 90.7239 169.045 91.5442C167.799 92.3645 166.829 93.5684 166.137 95.1557C165.455 96.7431 165.114 98.6926 165.114 101.004C165.114 103.316 165.455 105.266 166.137 106.853C166.829 108.441 167.799 109.644 169.045 110.465C170.292 111.285 171.751 111.695 173.424 111.695C175.096 111.695 176.556 111.285 177.802 110.465C179.049 109.644 180.013 108.441 180.695 106.853C181.387 105.266 181.733 103.316 181.733 101.004ZM54.9543 171.368V138.641H68.058C70.4656 138.641 72.4738 138.998 74.0825 139.711C75.6911 140.425 76.9003 141.416 77.7099 142.684C78.5196 143.941 78.9244 145.39 78.9244 147.03C78.9244 148.309 78.6688 149.433 78.1574 150.402C77.646 151.361 76.9429 152.149 76.048 152.767C75.1638 153.374 74.1517 153.806 73.0118 154.062V154.381C74.2582 154.434 75.4248 154.786 76.5114 155.436C77.6087 156.086 78.4983 156.997 79.1801 158.168C79.8619 159.33 80.2028 160.715 80.2028 162.323C80.2028 164.06 79.7714 165.61 78.9085 166.974C78.0562 168.327 76.7938 169.397 75.1212 170.186C73.4486 170.974 71.3871 171.368 68.9369 171.368H54.9543ZM61.8737 165.711H67.5146C69.4429 165.711 70.8491 165.344 71.7334 164.608C72.6176 163.863 73.0597 162.872 73.0597 161.636C73.0597 160.731 72.8413 159.932 72.4045 159.239C71.9678 158.547 71.3445 158.003 70.5349 157.609C69.7359 157.215 68.7824 157.018 67.6744 157.018H61.8737V165.711ZM61.8737 152.336H67.0033C67.9514 152.336 68.793 152.171 69.5281 151.84C70.2739 151.499 70.8598 151.02 71.2859 150.402C71.7227 149.784 71.9411 149.044 71.9411 148.181C71.9411 146.998 71.5203 146.045 70.6787 145.32C69.8477 144.596 68.6652 144.234 67.1311 144.234H61.8737V152.336ZM82.4552 171.368V138.641H89.3746V165.663H103.405V171.368H82.4552ZM134.538 155.004C134.538 158.573 133.861 161.61 132.508 164.113C131.166 166.617 129.333 168.529 127.011 169.85C124.699 171.16 122.1 171.816 119.213 171.816C116.304 171.816 113.694 171.155 111.382 169.834C109.071 168.513 107.244 166.601 105.901 164.097C104.559 161.594 103.888 158.563 103.888 155.004C103.888 151.436 104.559 148.399 105.901 145.896C107.244 143.392 109.071 141.485 111.382 140.175C113.694 138.854 116.304 138.193 119.213 138.193C122.1 138.193 124.699 138.854 127.011 140.175C129.333 141.485 131.166 143.392 132.508 145.896C133.861 148.399 134.538 151.436 134.538 155.004ZM127.522 155.004C127.522 152.693 127.176 150.743 126.484 149.156C125.802 147.568 124.838 146.365 123.591 145.544C122.345 144.724 120.885 144.314 119.213 144.314C117.54 144.314 116.081 144.724 114.834 145.544C113.588 146.365 112.618 147.568 111.926 149.156C111.244 150.743 110.903 152.693 110.903 155.004C110.903 157.316 111.244 159.266 111.926 160.853C112.618 162.441 113.588 163.644 114.834 164.465C116.081 165.285 117.54 165.695 119.213 165.695C120.885 165.695 122.345 165.285 123.591 164.465C124.838 163.644 125.802 162.441 126.484 160.853C127.176 159.266 127.522 157.316 127.522 155.004ZM166.289 150.099H159.29C159.162 149.193 158.901 148.389 158.507 147.686C158.113 146.972 157.607 146.365 156.989 145.864C156.371 145.363 155.657 144.98 154.848 144.713C154.049 144.447 153.18 144.314 152.243 144.314C150.549 144.314 149.073 144.735 147.816 145.576C146.559 146.407 145.584 147.622 144.892 149.22C144.199 150.807 143.853 152.735 143.853 155.004C143.853 157.338 144.199 159.298 144.892 160.885C145.595 162.472 146.575 163.671 147.832 164.481C149.089 165.29 150.544 165.695 152.195 165.695C153.122 165.695 153.979 165.573 154.768 165.328C155.567 165.083 156.275 164.726 156.893 164.257C157.511 163.778 158.022 163.197 158.427 162.515C158.843 161.833 159.13 161.056 159.29 160.182L166.289 160.214C166.108 161.716 165.655 163.165 164.931 164.561C164.217 165.945 163.253 167.187 162.039 168.284C160.835 169.371 159.397 170.233 157.724 170.873C156.062 171.501 154.182 171.816 152.083 171.816C149.164 171.816 146.554 171.155 144.253 169.834C141.962 168.513 140.151 166.601 138.819 164.097C137.498 161.594 136.838 158.563 136.838 155.004C136.838 151.436 137.509 148.399 138.851 145.896C140.194 143.392 142.016 141.485 144.317 140.175C146.618 138.854 149.207 138.193 152.083 138.193C153.979 138.193 155.737 138.46 157.356 138.992C158.986 139.525 160.43 140.303 161.687 141.325C162.944 142.338 163.967 143.579 164.755 145.049C165.554 146.519 166.066 148.202 166.289 150.099ZM169.001 171.368V138.641H175.921V153.071H176.352L188.129 138.641H196.423L184.278 153.295L196.567 171.368H188.289L179.324 157.913L175.921 162.068V171.368H169.001Z" fill="white"/>
<path d="M177.831 210.995C176.43 205.695 172.33 201.695 167.131 200.195C157.63 197.695 119.63 197.695 119.63 197.695C119.63 197.695 81.6305 197.695 72.1305 200.195C66.9305 201.595 62.8305 205.695 61.4305 210.995C58.9305 220.495 58.9305 240.195 58.9305 240.195C58.9305 240.195 58.9305 259.995 61.4305 269.395C62.9305 274.695 66.9305 278.795 72.2305 280.195C81.6305 282.695 119.63 282.695 119.63 282.695C119.63 282.695 157.63 282.695 167.131 280.195C172.33 278.795 176.43 274.695 177.931 269.495C180.43 259.995 180.43 240.295 180.43 240.295C180.43 240.295 180.331 220.495 177.831 210.995Z" fill="white"/>
<path d="M107.53 258.395L139.13 240.195L107.53 221.995V258.395Z" fill="#EE1C25"/>
</g>
<defs>
<clipPath id="clip0_46_13">
<rect width="256" height="256" fill="white"/>
</clipPath>
</defs>
</svg>
